<svg xmlns="http://www.w3.org/2000/svg" width="17.386" height="17" viewBox="0 0 17.386 17"><defs><style>.a{fill:none;}.b,.c{stroke:none;}</style></defs><g class="a"><path class="b" d="M13.523,17V13.136h3.864V17ZM6.955,17V13.136h3.864V17ZM0,17V13.136H3.864V17Zm0-6.182V0H17.386V10.818Z"/><path class="c" d="M 16.38632202148438 16 L 16.38632202148438 14.13640975952148 L 14.52273178100586 14.13640975952148 L 14.52273178100586 16 L 16.38632202148438 16 M 9.818121910095215 16 L 9.818121910095215 14.13640975952148 L 7.954532146453857 14.13640975952148 L 7.954532146453857 16 L 9.818121910095215 16 M 2.863591909408569 16 L 2.863591909408569 14.13640975952148 L 1.000001907348633 14.13640975952148 L 1.000001907348633 16 L 2.863591909408569 16 M 16.38632202148438 9.818120002746582 L 16.38632202148438 1 L 1.000001907348633 1 L 1.000001907348633 9.818120002746582 L 16.38632202148438 9.818120002746582 M 17.38632202148438 17 L 13.52273178100586 17 L 13.52273178100586 13.13640975952148 L 17.38632202148438 13.13640975952148 L 17.38632202148438 17 Z M 10.81812191009521 17 L 6.954532146453857 17 L 6.954532146453857 13.13640975952148 L 10.81812191009521 13.13640975952148 L 10.81812191009521 17 Z M 3.863591909408569 17 L 1.96441646949097e-06 17 L 1.96441646949097e-06 13.13640975952148 L 3.863591909408569 13.13640975952148 L 3.863591909408569 17 Z M 17.38632202148438 10.81812000274658 L 1.96441646949097e-06 10.81812000274658 L 1.96441646949097e-06 0 L 17.38632202148438 0 L 17.38632202148438 10.81812000274658 Z"/></g></svg>